<svg xmlns="http://www.w3.org/2000/svg" viewBox="0 0 512 512" width="512" height="512"><rect x="0" y="0" width="512" height="512" rx="115" fill="#FBF0EC"/>
  <defs>
    <!-- 코발트 종이 면 (accent 명도 변주) -->
    <linearGradient id="paper" x1="0" y1="0" x2="0.3" y2="1">
      <stop offset="0" stop-color="#5E61EE"/>
      <stop offset="0.5" stop-color="#4A4DE7"/>
      <stop offset="1" stop-color="#3F42DC"/>
    </linearGradient>
    <!-- 살몬 상단 띠 (peach-text 명도 변주) -->
    <linearGradient id="band" x1="0" y1="0" x2="0.2" y2="1">
      <stop offset="0" stop-color="#E29A6E"/>
      <stop offset="1" stop-color="#D88455"/>
    </linearGradient>
    <!-- 뒤 페이지 (명도 낮춰 겹침 대비) -->
    <linearGradient id="back" x1="0" y1="0" x2="0" y2="1">
      <stop offset="0" stop-color="#2E31A8"/>
      <stop offset="1" stop-color="#252892"/>
    </linearGradient>
    <linearGradient id="back2" x1="0" y1="0" x2="0" y2="1">
      <stop offset="0" stop-color="#3B3EC6"/>
      <stop offset="1" stop-color="#3134B4"/>
    </linearGradient>
    <!-- 금속 링 -->
    <linearGradient id="ring" x1="0" y1="0" x2="0" y2="1">
      <stop offset="0" stop-color="#F0F0F4"/>
      <stop offset="0.5" stop-color="#B9B9C4"/>
      <stop offset="1" stop-color="#8A8A96"/>
    </linearGradient>
    <filter id="drop" x="-30%" y="-30%" width="160%" height="160%">
      <feDropShadow dx="0" dy="26" stdDeviation="26" flood-color="#2b2f66" flood-opacity="0.28"/>
    </filter>
    <linearGradient id="sheen" x1="0" y1="0" x2="0" y2="1">
      <stop offset="0" stop-color="#ffffff" stop-opacity="0.22"/>
      <stop offset="0.5" stop-color="#ffffff" stop-opacity="0"/>
    </linearGradient>
  </defs>

  <!-- 프레임 배치: 115% 확대 + 중앙정렬 후 좌측 편향(시각 무게중심 보정) -->
  <g transform="translate(228 246) scale(1.035) translate(-256 -268)">
  <!-- 살짝 틸트된 캘린더 그룹 -->
  <g transform="translate(256 268) rotate(-7) translate(-256 -268)">
    <!-- 뒤 페이지 스택 (어긋남) -->
    <g filter="url(#drop)">
      <path d="M150 150 h250 a26 26 0 0 1 26 26 v230 a26 26 0 0 1 -26 26 h-250 a26 26 0 0 1 -26 -26 v-230 a26 26 0 0 1 26 -26 z"
            fill="url(#back)" transform="translate(26 30)"/>
      <!-- 뒤장1 상단 밝은 엣지(층 구분) -->
      <path d="M150 150 h250 a26 26 0 0 1 26 26 v12 h-302 v-12 a26 26 0 0 1 26 -26 z" fill="#4A4EDC" transform="translate(26 30)" opacity="0.7"/>
      <path d="M144 144 h250 a26 26 0 0 1 26 26 v230 a26 26 0 0 1 -26 26 h-250 a26 26 0 0 1 -26 -26 v-230 a26 26 0 0 1 26 -26 z"
            fill="url(#back2)" transform="translate(13 15)"/>
      <!-- 뒤장2 상단 밝은 엣지 -->
      <path d="M144 144 h250 a26 26 0 0 1 26 26 v12 h-302 v-12 a26 26 0 0 1 26 -26 z" fill="#585CE8" transform="translate(13 15)" opacity="0.7"/>
    </g>

    <!-- 본체 종이 (코발트) — 약간 아래로 휜 하단 -->
    <path d="M120 138 h250 a28 28 0 0 1 28 28 v210
             q0 20 -20 24 q-129 22 -258 0 q-28 -5 -28 -28 v-206 a28 28 0 0 1 28 -28 z"
          fill="url(#paper)"/>

    <!-- 상단 살몬 띠 -->
    <path d="M120 138 h250 a28 28 0 0 1 28 28 v52 h-306 v-52 a28 28 0 0 1 28 -28 z" fill="url(#band)"/>
    <!-- 유리 광택 -->
    <path d="M120 138 h250 a28 28 0 0 1 28 28 v40 q-153 -18 -306 0 v-40 a28 28 0 0 1 28 -28 z" fill="url(#sheen)"/>

    <!-- YM (흰색, 종이 중앙) -->
    <text x="262" y="330" font-family="-apple-system,BlinkMacSystemFont,'Segoe UI',Roboto,sans-serif"
          font-size="132" font-weight="800" fill="#ffffff" text-anchor="middle" letter-spacing="-6">YM</text>

    <!-- 금속 나선 링 2개 (띠 위로 관통) — 70% 축소 -->
    <g stroke="url(#ring)" stroke-width="12" fill="none" stroke-linecap="round">
      <path d="M209 117 q0 -23.8 21 -23.8 q21 0 21 23.8 q0 15.4 -9.8 23.8"/>
      <path d="M309 117 q0 -23.8 21 -23.8 q21 0 21 23.8 q0 15.4 -9.8 23.8"/>
    </g>
    <!-- 링 앞쪽(띠 앞) 하이라이트 -->
    <g stroke="#DADAE2" stroke-width="4" fill="none" stroke-linecap="round" opacity="0.8">
      <path d="M211.8 117 q0 -21 18.2 -21"/>
      <path d="M311.8 117 q0 -21 18.2 -21"/>
    </g>
  </g>
  </g>
</svg>