<svg xmlns="http://www.w3.org/2000/svg" viewBox="-2.169 -1.072 37.879 37.879" width="512" height="512">
  <title>GS칼텍스 예울마루</title>
  <path d="M25.16,7.915c-.8.342-1.753.739-2.805,1.235a25.082,25.082,0,0,0-11.274,9.8q-.371.618-.708,1.22C6.841,26.493,6.089,31.714,6.429,35.451c0,.019,0,.035,0,.054l0,.011a.273.273,0,0,0,.084.145.28.28,0,0,0,.251.067.29.29,0,0,0,.214-.222c0-.024,0-.044,0-.067q.03-.581.1-1.194a25.592,25.592,0,0,1,.67-3.574,34.527,34.527,0,0,1,3.932-9.015c.1-.158.194-.311.291-.465,4-6.309,9.682-8.825,13.133-10.3l.656-.278A42.24,42.24,0,0,0,31.2,7.866C35.257,5.326,35.917,2.081,36.545,0c-3.11,4.332-9.378,7.057-11.385,7.915" transform="translate(-2.999 0)" fill="#0057aa"/>
  <path d="M17.6,10.956a9.082,9.082,0,0,0-1.495,1.072A43.592,43.592,0,0,0,10.62,17.74C6.9,22.375,3.546,28.647,4.555,35.466a2.081,2.081,0,0,0,.228-.75,31.151,31.151,0,0,1,2.052-7.264,32.959,32.959,0,0,1,4.4-7.552c.474-.6.868-1.054,1.124-1.332a25.085,25.085,0,0,1,5.93-4.585,37.438,37.438,0,0,1,3.929-1.958,26.668,26.668,0,0,0,5-2.5c-3.39-.065-6.757-.21-9.619,1.431" transform="translate(-2.064 -4.479)" fill="#0f9b54"/>
  <path d="M14.131,9.673c-.307-3.051-2.919-1.475-4.264-.06-.037.037-.072.076-.109.114a24.5,24.5,0,0,0-2.5,3.252c-.7-3.935-3.792,1.171-4.182,1.8-.135.216-.283.473-.438.765A23.4,23.4,0,0,0,.1,24.162a22.762,22.762,0,0,0,.256,6.222,15,15,0,0,0,1.053,3.859,1.891,1.891,0,0,0,.37.532C-.259,22.993,10.143,12.5,14.131,9.673" transform="translate(0 -3.739)" fill="#ea6000"/>
</svg>
